<svg xmlns="http://www.w3.org/2000/svg" xmlns:xlink="http://www.w3.org/1999/xlink" width="2000" zoomAndPan="magnify" viewBox="0 0 1500 1499.999933" height="2000" preserveAspectRatio="xMidYMid meet" version="1.0"><defs><g/><clipPath id="57b001467f"><rect x="0" width="1308" y="0" height="538"/></clipPath></defs><g transform="matrix(1, 0, 0, 1, 96, 485)"><g clip-path="url(#57b001467f)"><g fill="#494848" fill-opacity="1"><g transform="translate(1.479345, 374.562832)"><g><path d="M 114.015625 -89.859375 C 114.015625 -71.773438 108.222656 -54.253906 96.640625 -37.296875 C 85.054688 -20.347656 70.363281 -11.875 52.5625 -11.875 C 38.425781 -11.875 27.191406 -20.421875 18.859375 -37.515625 C 10.523438 -54.609375 6.359375 -72.691406 6.359375 -91.765625 C 6.359375 -110.835938 11.515625 -131.675781 21.828125 -154.28125 C 32.140625 -176.882812 45.632812 -194.96875 62.3125 -208.53125 C 65.976562 -211.925781 70.632812 -213.625 76.28125 -213.625 C 81.9375 -213.625 88.582031 -210.375 96.21875 -203.875 C 100.164062 -200.195312 102.140625 -192.566406 102.140625 -180.984375 C 102.140625 -169.398438 98.75 -151.316406 91.96875 -126.734375 C 90.28125 -120.515625 88.019531 -117.40625 85.1875 -117.40625 C 79.820312 -117.40625 75.726562 -132.519531 72.90625 -162.75 C 72.625 -167.5625 72.335938 -170.53125 72.046875 -171.65625 C 58.203125 -156.394531 47.394531 -139.085938 39.625 -119.734375 C 31.851562 -100.378906 27.96875 -81.660156 27.96875 -63.578125 C 27.96875 -54.253906 31.078125 -49.59375 37.296875 -49.59375 C 48.035156 -49.59375 64.988281 -59.195312 88.15625 -78.40625 C 92.394531 -82.082031 95.503906 -84.835938 97.484375 -86.671875 C 99.460938 -88.515625 102.425781 -91.203125 106.375 -94.734375 C 110.332031 -98.265625 112.597656 -100.3125 113.171875 -100.875 C 113.734375 -98.332031 114.015625 -94.660156 114.015625 -89.859375 Z M 114.015625 -89.859375 "/></g></g></g><g fill="#494848" fill-opacity="1"><g transform="translate(118.882918, 374.562832)"><g><path d="M 108.921875 -121.21875 C 108.921875 -87.03125 99.035156 -56.65625 79.265625 -30.09375 C 72.191406 -21.050781 64.347656 -16.53125 55.734375 -16.53125 C 47.117188 -16.53125 40.265625 -18.648438 35.171875 -22.890625 C 16.804688 -38.148438 7.625 -64.285156 7.625 -101.296875 C 7.625 -127.015625 14.546875 -159.789062 28.390625 -199.625 C 29.523438 -202.457031 30.515625 -204.222656 31.359375 -204.921875 C 32.210938 -205.628906 33.695312 -205.984375 35.8125 -205.984375 C 37.9375 -205.984375 40.550781 -207.46875 43.65625 -210.4375 C 46.757812 -213.40625 51.914062 -214.890625 59.125 -214.890625 C 66.332031 -214.890625 73.609375 -212.203125 80.953125 -206.828125 C 88.296875 -201.460938 93.664062 -194.257812 97.0625 -185.21875 C 104.96875 -164.03125 108.921875 -142.695312 108.921875 -121.21875 Z M 73.75 -148.765625 C 73.75 -174.765625 70.5 -187.765625 64 -187.765625 C 60.894531 -187.765625 58.070312 -185.363281 55.53125 -180.5625 C 44.21875 -153.71875 38.5625 -121.644531 38.5625 -84.34375 C 38.5625 -75.019531 38.707031 -67.957031 39 -63.15625 C 62.164062 -80.957031 73.75 -109.492188 73.75 -148.765625 Z M 73.75 -148.765625 "/></g></g></g><g fill="#494848" fill-opacity="1"><g transform="translate(235.438825, 374.562832)"><g><path d="M 36.875 -332.71875 C 36.875 -336.101562 38.710938 -337.796875 42.390625 -337.796875 C 43.796875 -337.796875 45.628906 -337.515625 47.890625 -336.953125 C 64.847656 -333.566406 73.328125 -323.816406 73.328125 -307.703125 C 73.328125 -303.753906 72.898438 -299.445312 72.046875 -294.78125 C 71.203125 -290.125 69.578125 -280.445312 67.171875 -265.75 C 64.773438 -251.050781 63.007812 -240.457031 61.875 -233.96875 L 57.640625 -204.71875 C 50.859375 -160.070312 47.46875 -118.957031 47.46875 -81.375 C 47.46875 -73.1875 49.445312 -69.09375 53.40625 -69.09375 C 54.820312 -69.09375 56.375 -69.9375 58.0625 -71.625 C 77.84375 -96.488281 89.359375 -111.675781 92.609375 -117.1875 C 95.859375 -122.695312 98.257812 -125.453125 99.8125 -125.453125 C 101.363281 -125.453125 102.140625 -123.546875 102.140625 -119.734375 C 102.140625 -115.921875 101.363281 -108.710938 99.8125 -98.109375 C 98.257812 -87.515625 97.34375 -80.734375 97.0625 -77.765625 C 96.78125 -74.804688 96.144531 -71.488281 95.15625 -67.8125 C 94.164062 -64.144531 93.316406 -61.25 92.609375 -59.125 C 91.898438 -57.007812 90.414062 -54.039062 88.15625 -50.21875 C 85.894531 -46.40625 84.34375 -43.9375 83.5 -42.8125 C 77.5625 -34.894531 72.828125 -28.742188 69.296875 -24.359375 C 65.765625 -19.984375 61.664062 -17.796875 57 -17.796875 C 52.34375 -17.796875 47.894531 -19.914062 43.65625 -24.15625 C 39.414062 -28.394531 36.375 -32.207031 34.53125 -35.59375 C 32.695312 -38.988281 30.085938 -44.21875 26.703125 -51.28125 C 16.816406 -70.5 11.875 -90.703125 11.875 -111.890625 C 11.875 -129.972656 13.921875 -152.15625 18.015625 -178.4375 C 22.109375 -204.71875 24.582031 -221.109375 25.4375 -227.609375 C 18.9375 -227.609375 15.6875 -230.429688 15.6875 -236.078125 C 15.6875 -238.335938 16.035156 -240.523438 16.734375 -242.640625 C 17.441406 -244.765625 20.054688 -252.609375 24.578125 -266.171875 C 34.191406 -293.578125 39 -311.519531 39 -320 Z M 36.875 -332.71875 "/></g></g></g><g fill="#494848" fill-opacity="1"><g transform="translate(337.584171, 374.562832)"><g><path d="M 163.1875 -59.34375 C 163.1875 -43.800781 159.085938 -36.03125 150.890625 -36.03125 C 144.390625 -36.03125 138.738281 -39.421875 133.9375 -46.203125 C 129.132812 -52.984375 125.457031 -59.128906 122.90625 -64.640625 C 120.363281 -70.148438 117.820312 -75.375 115.28125 -80.3125 C 112.738281 -85.257812 110.476562 -91.125 108.5 -97.90625 C 108.21875 -97.0625 107.375 -94.09375 105.96875 -89 L 102.5625 -77.5625 C 99.175781 -65.132812 96.5625 -56.867188 94.71875 -52.765625 C 92.882812 -48.671875 90.90625 -44.148438 88.78125 -39.203125 C 86.664062 -34.253906 84.476562 -30.296875 82.21875 -27.328125 C 79.957031 -24.367188 77.554688 -21.476562 75.015625 -18.65625 C 69.929688 -12.71875 63.785156 -9.75 56.578125 -9.75 C 49.378906 -9.75 42.390625 -13.847656 35.609375 -22.046875 C 24.015625 -35.609375 15.535156 -52.5625 10.171875 -72.90625 C 7.628906 -81.375 6.359375 -91.117188 6.359375 -102.140625 C 6.359375 -113.160156 9.75 -125.378906 16.53125 -138.796875 C 23.3125 -152.222656 33.484375 -166.988281 47.046875 -183.09375 C 60.609375 -199.207031 73.179688 -207.265625 84.765625 -207.265625 C 90.984375 -207.265625 98.050781 -204.296875 105.96875 -198.359375 C 107.65625 -213.617188 110.476562 -235.234375 114.4375 -263.203125 C 118.394531 -291.179688 120.796875 -309.476562 121.640625 -318.09375 C 122.492188 -326.707031 125.53125 -331.015625 130.75 -331.015625 C 135.976562 -331.015625 139.789062 -328.257812 142.1875 -322.75 C 144.59375 -317.238281 145.796875 -311.800781 145.796875 -306.4375 C 145.796875 -301.070312 145.375 -296.128906 144.53125 -291.609375 C 136.613281 -210.796875 132.65625 -145.097656 132.65625 -94.515625 C 132.65625 -86.890625 134.773438 -83.078125 139.015625 -83.078125 C 143.253906 -83.078125 147.847656 -86.394531 152.796875 -93.03125 C 157.742188 -99.675781 160.992188 -103 162.546875 -103 C 164.097656 -103 164.875 -101.867188 164.875 -99.609375 L 161.90625 -81.375 Z M 94.9375 -162.328125 C 94.9375 -165.722656 93.3125 -167.421875 90.0625 -167.421875 C 86.8125 -167.421875 82.925781 -166.007812 78.40625 -163.1875 C 63.71875 -154.988281 51.640625 -142.269531 42.171875 -125.03125 C 32.703125 -107.789062 27.96875 -90.554688 27.96875 -73.328125 C 27.96875 -62.867188 31.21875 -57.640625 37.71875 -57.640625 C 40.257812 -57.640625 43.085938 -59.195312 46.203125 -62.3125 C 62.023438 -78.976562 77.707031 -109.773438 93.25 -154.703125 C 94.375 -157.523438 94.9375 -160.066406 94.9375 -162.328125 Z M 94.9375 -162.328125 "/></g></g></g><g fill="#494848" fill-opacity="1"><g transform="translate(500.338592, 374.562832)"><g><path d="M 65.703125 -66.96875 C 75.304688 -66.96875 82.085938 -71.628906 86.046875 -80.953125 C 88.585938 -86.609375 91.832031 -96.285156 95.78125 -109.984375 C 99.738281 -123.691406 101.71875 -132.664062 101.71875 -136.90625 C 101.71875 -144.8125 98.609375 -148.765625 92.390625 -148.765625 C 91.546875 -148.765625 90.5625 -148.625 89.4375 -148.34375 C 73.613281 -144.664062 62.734375 -137.035156 56.796875 -125.453125 C 48.316406 -109.628906 44.078125 -92.394531 44.078125 -73.75 C 44.078125 -64.707031 45.132812 -54.957031 47.25 -44.5 C 49.375 -34.050781 50.4375 -27.410156 50.4375 -24.578125 C 50.4375 -13.273438 47.1875 -7.625 40.6875 -7.625 C 33.625 -7.625 25.148438 -21.753906 15.265625 -50.015625 C 11.023438 -62.160156 8.125 -70.070312 6.5625 -73.75 C 5.007812 -77.425781 4.234375 -81.523438 4.234375 -86.046875 C 4.234375 -94.796875 9.742188 -109.347656 20.765625 -129.703125 C 26.421875 -203.441406 36.875 -270.265625 52.125 -330.171875 C 53.820312 -335.828125 55.941406 -338.65625 58.484375 -338.65625 C 61.597656 -338.65625 63.929688 -336.25 65.484375 -331.4375 C 67.035156 -326.632812 67.8125 -322.75 67.8125 -319.78125 C 67.8125 -316.820312 66.46875 -304.109375 63.78125 -281.640625 C 61.101562 -259.179688 58.207031 -224.070312 55.09375 -176.3125 C 70.070312 -189.875 83.210938 -196.65625 94.515625 -196.65625 C 101.578125 -196.65625 107.722656 -193.898438 112.953125 -188.390625 C 118.179688 -182.890625 122.207031 -176.039062 125.03125 -167.84375 C 130.40625 -151.738281 133.09375 -136.476562 133.09375 -122.0625 C 133.09375 -85.050781 120.234375 -49.304688 94.515625 -14.828125 C 89.429688 -8.046875 84.203125 -4.65625 78.828125 -4.65625 C 71.765625 -4.65625 64.984375 -12.144531 58.484375 -27.125 C 51.984375 -42.101562 48.734375 -53.972656 48.734375 -62.734375 C 48.734375 -66.972656 50.289062 -69.09375 53.40625 -69.09375 Z M 65.703125 -66.96875 "/></g></g></g><g fill="#494848" fill-opacity="1"><g transform="translate(641.053325, 374.562832)"><g><path d="M 135.203125 -116.5625 C 137.179688 -116.5625 138.171875 -110.695312 138.171875 -98.96875 C 138.171875 -87.238281 134.21875 -75.441406 126.3125 -63.578125 C 122.914062 -56.796875 117.472656 -48.953125 109.984375 -40.046875 C 102.492188 -31.148438 97.476562 -25.710938 94.9375 -23.734375 C 87.3125 -18.367188 81.164062 -15.6875 76.5 -15.6875 C 71.84375 -15.6875 68.382812 -15.96875 66.125 -16.53125 C 63.863281 -17.09375 61.671875 -18.289062 59.546875 -20.125 C 57.429688 -21.96875 55.738281 -23.382812 54.46875 -24.375 C 53.195312 -25.363281 51.640625 -27.335938 49.796875 -30.296875 C 47.960938 -33.265625 46.757812 -35.171875 46.1875 -36.015625 C 45.625 -36.867188 44.351562 -39.128906 42.375 -42.796875 C 40.40625 -46.472656 39.421875 -48.453125 39.421875 -48.734375 C 34.046875 -58.628906 31.359375 -68.023438 31.359375 -76.921875 C 31.359375 -85.828125 32.132812 -94.164062 33.6875 -101.9375 C 35.25 -109.707031 37.722656 -119.242188 41.109375 -130.546875 C 44.503906 -141.847656 46.625 -149.050781 47.46875 -152.15625 C 43.226562 -146.789062 37.578125 -141 30.515625 -134.78125 C 27.691406 -132.519531 24.65625 -131.390625 21.40625 -131.390625 C 18.15625 -131.390625 15.46875 -132.875 13.34375 -135.84375 C 11.226562 -138.8125 8.472656 -145.238281 5.078125 -155.125 C 1.691406 -165.019531 0 -171.734375 0 -175.265625 C 0 -178.796875 2.257812 -184.300781 6.78125 -191.78125 C 11.300781 -199.269531 13.984375 -204.285156 14.828125 -206.828125 C 16.242188 -211.921875 18.363281 -214.46875 21.1875 -214.46875 C 22.601562 -214.46875 25.992188 -212.984375 31.359375 -210.015625 C 36.734375 -207.046875 40.265625 -201.320312 41.953125 -192.84375 C 42.523438 -189.457031 43.800781 -187.765625 45.78125 -187.765625 C 46.625 -187.765625 49.09375 -189.316406 53.1875 -192.421875 C 57.289062 -195.535156 61.8125 -197.09375 66.75 -197.09375 C 71.695312 -197.09375 79.113281 -192.570312 89 -183.53125 C 92.394531 -180.132812 94.09375 -175.328125 94.09375 -169.109375 C 94.09375 -162.898438 93.738281 -158.519531 93.03125 -155.96875 C 92.320312 -153.425781 91.546875 -151.734375 90.703125 -150.890625 C 88.160156 -148.910156 86.253906 -146.15625 84.984375 -142.625 C 83.710938 -139.09375 79.894531 -125.8125 73.53125 -102.78125 C 67.175781 -79.75 64 -67.101562 64 -64.84375 C 64 -62.582031 64.847656 -61.453125 66.546875 -61.453125 C 68.804688 -61.453125 77.847656 -68.234375 93.671875 -81.796875 C 109.492188 -95.359375 120.9375 -105.390625 128 -111.890625 C 132.238281 -115.003906 134.640625 -116.5625 135.203125 -116.5625 Z M 135.203125 -116.5625 "/></g></g></g><g fill="#494848" fill-opacity="1"><g transform="translate(771.172126, 374.562832)"><g><path d="M 134.359375 -77.140625 C 134.359375 -34.191406 112.601562 -12.71875 69.09375 -12.71875 C 51 -12.71875 37.785156 -17.378906 29.453125 -26.703125 C 21.117188 -36.023438 13.84375 -50.296875 7.625 -69.515625 C 5.363281 -76.859375 4.234375 -84.695312 4.234375 -93.03125 C 4.234375 -101.363281 7.976562 -112.523438 15.46875 -126.515625 C 22.957031 -140.503906 31.222656 -152.726562 40.265625 -163.1875 C 41.390625 -178.71875 44.921875 -186.484375 50.859375 -186.484375 C 53.972656 -186.484375 56.09375 -184.648438 57.21875 -180.984375 C 63.15625 -186.347656 70.359375 -191.570312 78.828125 -196.65625 C 87.304688 -201.75 94.9375 -204.296875 101.71875 -204.296875 C 108.5 -204.296875 115.492188 -200.335938 122.703125 -192.421875 C 129.910156 -184.515625 133.515625 -176.390625 133.515625 -168.046875 C 133.515625 -159.710938 127.722656 -148.34375 116.140625 -133.9375 C 94.378906 -106.8125 77.28125 -93.25 64.84375 -93.25 C 55.800781 -93.25 48.738281 -100.734375 43.65625 -115.703125 C 43.375 -115.140625 42.03125 -112.804688 39.625 -108.703125 C 37.226562 -104.609375 35.535156 -101.570312 34.546875 -99.59375 C 33.554688 -97.625 32.210938 -94.941406 30.515625 -91.546875 C 27.691406 -85.046875 26.28125 -79.253906 26.28125 -74.171875 C 26.28125 -62.585938 32.070312 -56.796875 43.65625 -56.796875 C 62.875 -56.796875 79.191406 -60.820312 92.609375 -68.875 C 106.035156 -76.925781 119.382812 -89.144531 132.65625 -105.53125 C 133.789062 -93.101562 134.359375 -83.640625 134.359375 -77.140625 Z M 65.265625 -128.421875 C 69.785156 -128.421875 76.492188 -133.929688 85.390625 -144.953125 C 94.296875 -155.972656 98.75 -163.53125 98.75 -167.625 C 98.75 -171.726562 97.265625 -173.78125 94.296875 -173.78125 C 91.335938 -173.78125 86.253906 -170.101562 79.046875 -162.75 C 71.835938 -155.40625 66.113281 -149.050781 61.875 -143.6875 C 61.3125 -140.289062 61.03125 -137.742188 61.03125 -136.046875 C 61.03125 -130.960938 62.441406 -128.421875 65.265625 -128.421875 Z M 65.265625 -128.421875 "/></g></g></g><g fill="#494848" fill-opacity="1"><g transform="translate(914.006025, 374.562832)"><g><path d="M 90.703125 -158.09375 C 93.242188 -158.09375 95.363281 -158.09375 97.0625 -158.09375 C 98.757812 -158.09375 100.453125 -158.019531 102.140625 -157.875 C 103.835938 -157.738281 105.109375 -157.597656 105.953125 -157.453125 C 106.804688 -157.316406 107.867188 -157.035156 109.140625 -156.609375 C 110.410156 -156.179688 111.328125 -155.613281 111.890625 -154.90625 C 112.460938 -154.207031 113.03125 -153.429688 113.59375 -152.578125 C 115 -151.171875 115.703125 -149.335938 115.703125 -147.078125 C 115.703125 -144.816406 114.992188 -137.046875 113.578125 -123.765625 C 112.171875 -110.484375 111.46875 -99.882812 111.46875 -91.96875 C 111.46875 -69.363281 113.023438 -58.0625 116.140625 -58.0625 C 117.265625 -58.0625 118.675781 -59.757812 120.375 -63.15625 C 128.851562 -80.382812 133.09375 -103.835938 133.09375 -133.515625 C 133.09375 -162.617188 131.75 -179.992188 129.0625 -185.640625 C 126.375 -191.296875 123.757812 -195.179688 121.21875 -197.296875 C 118.675781 -199.421875 116.34375 -201.328125 114.21875 -203.015625 C 112.101562 -204.710938 111.046875 -205.984375 111.046875 -206.828125 C 111.046875 -209.660156 113.445312 -211.078125 118.25 -211.078125 L 124.609375 -211.078125 C 130.828125 -210.796875 136.054688 -206.132812 140.296875 -197.09375 C 157.816406 -160.070312 166.578125 -124.75 166.578125 -91.125 C 166.578125 -75.582031 164.878906 -61.453125 161.484375 -48.734375 C 154.984375 -25.285156 143.679688 -13.5625 127.578125 -13.5625 C 121.359375 -13.5625 114.859375 -16.03125 108.078125 -20.96875 C 101.296875 -25.914062 96.140625 -32.34375 92.609375 -40.25 C 89.078125 -48.164062 86.179688 -58.484375 83.921875 -71.203125 C 80.816406 -61.035156 75.726562 -49.660156 68.65625 -37.078125 C 61.59375 -24.503906 54.953125 -18.21875 48.734375 -18.21875 C 46.472656 -18.21875 44.210938 -19.066406 41.953125 -20.765625 C 24.441406 -33.765625 15.6875 -56.65625 15.6875 -89.4375 C 15.6875 -107.238281 18.085938 -123.765625 22.890625 -139.015625 C 24.585938 -143.816406 27.835938 -152.71875 32.640625 -165.71875 C 21.898438 -158.65625 14.054688 -155.125 9.109375 -155.125 C 4.171875 -155.125 0.285156 -158.234375 -2.546875 -164.453125 C -6.503906 -172.929688 -8.484375 -184.234375 -8.484375 -198.359375 C -8.484375 -201.742188 -7.066406 -203.4375 -4.234375 -203.4375 L 1.703125 -202.59375 C 4.523438 -202.59375 10.597656 -204.851562 19.921875 -209.375 C 29.242188 -213.894531 35.601562 -216.15625 39 -216.15625 C 46.90625 -216.15625 53.398438 -211.28125 58.484375 -201.53125 C 63.578125 -191.789062 66.125 -183.738281 66.125 -177.375 C 66.125 -171.019531 65.414062 -164.519531 64 -157.875 C 62.582031 -151.238281 59.191406 -138.171875 53.828125 -118.671875 C 46.203125 -90.703125 42.390625 -75.09375 42.390625 -71.84375 C 42.390625 -68.59375 42.953125 -66.96875 44.078125 -66.96875 C 45.210938 -66.96875 46.765625 -68.378906 48.734375 -71.203125 C 60.046875 -88.722656 69.9375 -114.296875 78.40625 -147.921875 C 80.101562 -154.703125 84.203125 -158.09375 90.703125 -158.09375 Z M 90.703125 -158.09375 "/></g></g></g><g fill="#494848" fill-opacity="1"><g transform="translate(1088.204147, 374.562832)"><g><path d="M 52.984375 -312.796875 C 53.828125 -317.316406 57.003906 -319.578125 62.515625 -319.578125 C 68.023438 -319.578125 72.96875 -316.960938 77.34375 -311.734375 C 81.726562 -306.503906 83.921875 -300.640625 83.921875 -294.140625 C 83.921875 -287.648438 81.726562 -278.328125 77.34375 -266.171875 C 72.96875 -254.023438 68.238281 -247.953125 63.15625 -247.953125 C 59.195312 -247.953125 55.945312 -252.679688 53.40625 -262.140625 C 50.863281 -271.609375 49.59375 -279.453125 49.59375 -285.671875 C 49.59375 -291.890625 50.722656 -300.929688 52.984375 -312.796875 Z M 64.84375 -53.40625 C 67.675781 -53.40625 69.09375 -51.847656 69.09375 -48.734375 C 69.09375 -45.628906 68.523438 -41.882812 67.390625 -37.5 C 66.265625 -33.125 64.851562 -28.25 63.15625 -22.875 C 61.457031 -17.507812 60.328125 -13.84375 59.765625 -11.875 C 57.222656 -1.414062 50.300781 5.929688 39 10.171875 C 27.976562 62.722656 14.410156 106.238281 -1.703125 140.71875 C -8.191406 155.125 -17.9375 162.328125 -30.9375 162.328125 C -40.257812 162.328125 -48.597656 158.234375 -55.953125 150.046875 C -72.054688 133.085938 -86.179688 105.535156 -98.328125 67.390625 C -100.585938 60.046875 -101.71875 53.898438 -101.71875 48.953125 C -101.71875 44.003906 -100.023438 39.695312 -96.640625 36.03125 C -72.335938 9.46875 -34.472656 -14.550781 16.953125 -36.03125 C 29.097656 -86.601562 37.578125 -144.8125 42.390625 -210.65625 C 42.953125 -216.582031 44.925781 -219.546875 48.3125 -219.546875 C 53.40625 -219.546875 57.71875 -216.789062 61.25 -211.28125 C 64.78125 -205.769531 66.546875 -200.539062 66.546875 -195.59375 C 66.546875 -190.65625 66.40625 -187.054688 66.125 -184.796875 C 61.320312 -131.953125 55.8125 -86.597656 49.59375 -48.734375 C 58.914062 -51.847656 64 -53.40625 64.84375 -53.40625 Z M 1.265625 22.046875 C -11.160156 26.847656 -25.992188 35.320312 -43.234375 47.46875 C -60.472656 59.625 -69.09375 68.664062 -69.09375 74.59375 C -69.09375 78.550781 -65.347656 82.648438 -57.859375 86.890625 C -50.367188 91.128906 -44.222656 93.25 -39.421875 93.25 C -34.617188 93.25 -30.238281 90.140625 -26.28125 83.921875 C -16.101562 68.660156 -6.921875 48.035156 1.265625 22.046875 Z M 1.265625 22.046875 "/></g></g></g><g fill="#494848" fill-opacity="1"><g transform="translate(1166.190692, 374.562832)"><g><path d="M 19.5 -131.390625 C 19.5 -138.734375 17.304688 -144.878906 12.921875 -149.828125 C 8.546875 -154.773438 6.359375 -157.953125 6.359375 -159.359375 C 6.359375 -160.773438 7.273438 -161.90625 9.109375 -162.75 C 10.953125 -163.601562 13.003906 -164.238281 15.265625 -164.65625 C 17.523438 -165.082031 19.785156 -166.78125 22.046875 -169.75 C 24.304688 -172.71875 26.140625 -179.003906 27.546875 -188.609375 C 28.960938 -198.210938 29.671875 -205.0625 29.671875 -209.15625 C 29.671875 -213.257812 30.941406 -215.3125 33.484375 -215.3125 C 36.023438 -215.3125 38.285156 -214.460938 40.265625 -212.765625 C 42.242188 -211.066406 43.726562 -209.441406 44.71875 -207.890625 C 45.707031 -206.335938 46.90625 -204.003906 48.3125 -200.890625 C 49.726562 -197.785156 50.71875 -195.8125 51.28125 -194.96875 C 60.601562 -198.070312 68.375 -199.625 74.59375 -199.625 C 90.695312 -199.625 104.613281 -191.78125 116.34375 -176.09375 C 128.070312 -160.414062 133.9375 -144.382812 133.9375 -128 C 133.9375 -122.0625 133.226562 -115.28125 131.8125 -107.65625 C 123.050781 -69.789062 109.488281 -43.796875 91.125 -29.671875 C 84.90625 -24.585938 79.253906 -22.046875 74.171875 -22.046875 C 69.085938 -22.046875 64.847656 -24.09375 61.453125 -28.1875 C 58.066406 -32.28125 55.664062 -37.578125 54.25 -44.078125 C 51.707031 -55.660156 50.4375 -69.082031 50.4375 -84.34375 C 50.4375 -99.601562 52.132812 -107.234375 55.53125 -107.234375 C 56.09375 -107.234375 57.570312 -103.554688 59.96875 -96.203125 C 62.375 -88.859375 66.117188 -85.1875 71.203125 -85.1875 C 76.285156 -85.1875 80.101562 -87.734375 82.65625 -92.828125 C 87.175781 -100.734375 91.550781 -110.691406 95.78125 -122.703125 C 100.019531 -134.710938 102.140625 -144.035156 102.140625 -150.671875 C 102.140625 -157.316406 99.035156 -160.640625 92.828125 -160.640625 C 89.148438 -160.640625 85.050781 -159.648438 80.53125 -157.671875 C 63.007812 -150.609375 51.425781 -134.644531 45.78125 -109.78125 C 35.882812 -65.695312 30.9375 -27.265625 30.9375 5.515625 C 30.9375 21.054688 31.785156 33.910156 33.484375 44.078125 L 34.75 53.828125 C 34.75 57.222656 33.335938 60.472656 30.515625 63.578125 C 27.691406 66.679688 24.582031 68.234375 21.1875 68.234375 C 12.144531 68.234375 7.625 47.039062 7.625 4.65625 C 7.625 -21.894531 11.441406 -64.84375 19.078125 -124.1875 Z M 19.5 -131.390625 "/></g></g></g></g></g></svg>